# xmcd
#
# Track frame offsets: 
#        150
#        5877
#        32897
#        56297
#        78522
#        97347
#        115347
#        135072
#        156477
#        193947
#        219327
#        236997
#        257802
#
# Disc length: 3763 seconds
#
# Revision: 0
# Processed by: cddbd v1.5.2PL0 Copyright (c) Steve Scherf et al.
# Submitted via: ExactAudioCopy v0.99pb3
#
DISCID=bb0eb10d
DTITLE=Black and White - Libe - CD1
DYEAR=1900
DGENRE=Blues
TTITLE0=He's Got The Whole World In His Hands
TTITLE1=I Cant Stop Loving You
TTITLE2=My Special Prayer
TTITLE3=Unchained Melody
TTITLE4=Nobody Knows The Trouble I'Ve Seen
TTITLE5=Besaine Mucho
TTITLE6=Georgia On My Mind
TTITLE7=Unchain My Heart
TTITLE8=Lonely Blue Boy
TTITLE9=I Can See Clearly Now
TTITLE10=Sentimental Journey
TTITLE11=May Way
TTITLE12=Stand By Me
EXTD=
EXTT0=
EXTT1=
EXTT2=
EXTT3=
EXTT4=
EXTT5=
EXTT6=
EXTT7=
EXTT8=
EXTT9=
EXTT10=
EXTT11=
EXTT12=
PLAYORDER=
